<svg xmlns="http://www.w3.org/2000/svg" xmlns:xlink="http://www.w3.org/1999/xlink" width="512" zoomAndPan="magnify" viewBox="0 0 384 95.999999" height="128" preserveAspectRatio="xMidYMid meet" version="1.0"><defs><g/><clipPath id="9299451705"><path d="M 9.601562 13.726562 L 101.097656 13.726562 L 101.097656 82.539062 L 9.601562 82.539062 Z M 9.601562 13.726562 " clip-rule="nonzero"/></clipPath></defs><g clip-path="url(#9299451705)"><path fill="#ededed" d="M 47.496094 45.867188 L 53.164062 40.226562 C 54.359375 39.03125 56.292969 39.039062 57.480469 40.242188 L 63.21875 46.042969 C 64.410156 47.25 64.402344 49.199219 63.203125 50.394531 L 57.535156 56.039062 C 56.335938 57.230469 54.40625 57.222656 53.214844 56.019531 L 47.480469 50.21875 C 46.289062 49.011719 46.296875 47.066406 47.496094 45.867188 Z M 96.652344 37.371094 L 77.449219 17.941406 C 71.925781 12.351562 62.941406 12.316406 57.371094 17.859375 L 69.871094 30.503906 L 84.871094 45.679688 L 84.921875 45.730469 L 84.917969 45.734375 C 86.253906 47.140625 86.230469 49.34375 84.851562 50.71875 L 69.734375 65.773438 L 69.683594 65.824219 C 68.457031 67 66.695312 65.082031 67.898438 63.882812 L 76.304688 55.507812 C 80.308594 51.523438 80.332031 45.027344 76.359375 41.007812 L 54.316406 18.707031 C 48.371094 12.695312 38.707031 12.65625 32.714844 18.625 L 14.125 37.144531 C 8.121094 43.125 8.085938 52.867188 14.042969 58.894531 L 33.25 78.324219 C 38.773438 83.910156 47.757812 83.945312 53.324219 78.402344 L 40.828125 65.757812 L 25.828125 50.582031 L 25.777344 50.53125 L 25.777344 50.527344 C 24.445312 49.125 24.46875 46.914062 25.847656 45.542969 L 40.960938 30.488281 L 41.015625 30.4375 C 42.242188 29.261719 44.003906 31.179688 42.800781 32.378906 L 34.394531 40.753906 C 30.390625 44.742188 30.367188 51.238281 34.335938 55.253906 L 56.382812 77.554688 C 62.328125 83.566406 71.992188 83.605469 77.980469 77.636719 L 96.570312 59.121094 C 102.574219 53.140625 102.609375 43.398438 96.652344 37.371094 " fill-opacity="1" fill-rule="nonzero"/></g><g fill="#ededed" fill-opacity="1"><g transform="translate(123.34662, 68.134278)"><g><path d="M 3.394531 -36.984375 L 3.394531 0 L 19.101562 0 C 30.5 0 37.695312 -7.195312 37.695312 -17.429688 L 37.695312 -19.554688 C 37.695312 -29.789062 30.5 -36.984375 19.101562 -36.984375 Z M 29.132812 -17.582031 C 29.132812 -11.449219 25.078125 -7.398438 17.984375 -7.398438 L 11.855469 -7.398438 L 11.855469 -29.585938 L 17.984375 -29.585938 C 25.078125 -29.585938 29.132812 -25.535156 29.132812 -19.402344 Z M 29.132812 -17.582031 "/></g></g></g><g fill="#ededed" fill-opacity="1"><g transform="translate(162.508235, 68.134278)"><g><path d="M 19.910156 0.660156 C 31.207031 0.660156 38.148438 -6.28125 38.148438 -17.582031 L 38.148438 -19.402344 C 38.148438 -30.703125 31.207031 -37.644531 19.910156 -37.644531 C 8.5625 -37.644531 1.621094 -30.703125 1.621094 -19.402344 L 1.621094 -17.582031 C 1.621094 -6.28125 8.5625 0.660156 19.910156 0.660156 Z M 19.910156 -6.6875 C 13.984375 -6.6875 10.183594 -10.488281 10.183594 -17.730469 L 10.183594 -19.253906 C 10.183594 -26.496094 13.984375 -30.296875 19.910156 -30.296875 C 25.839844 -30.296875 29.585938 -26.496094 29.585938 -19.253906 L 29.585938 -17.730469 C 29.585938 -10.488281 25.789062 -6.6875 19.910156 -6.6875 Z M 19.910156 -6.6875 "/></g></g></g><g fill="#ededed" fill-opacity="1"><g transform="translate(202.277792, 68.134278)"><g><path d="M 13.375 -29.585938 L 13.375 0 L 21.835938 0 L 21.835938 -29.585938 L 34.148438 -29.585938 L 34.148438 -36.984375 L 1.011719 -36.984375 L 1.011719 -29.585938 Z M 13.375 -29.585938 "/></g></g></g><g fill="#ededed" fill-opacity="1"><g transform="translate(237.437112, 68.134278)"><g><path d="M 28.828125 0 L 28.828125 -7.5 L 11.855469 -7.5 L 11.855469 -36.984375 L 3.394531 -36.984375 L 3.394531 0 Z M 28.828125 0 "/></g></g></g><g fill="#ededed" fill-opacity="1"><g transform="translate(267.074307, 68.134278)"><g><path d="M 25.484375 -36.984375 L 17.378906 -21.785156 L 9.171875 -36.984375 L -0.40625 -36.984375 L 13.121094 -12.96875 L 13.121094 0 L 21.582031 0 L 21.582031 -12.917969 L 35.007812 -36.984375 Z M 25.484375 -36.984375 "/></g></g></g></svg>